<svg width="13" height="13" fill="none" xmlns="http://www.w3.org/2000/svg"><path d="M13 9.295v1.869c0 .173-.037.345-.11.504a1.25 1.25 0 01-.314.419 1.32 1.32 0 01-.465.262 1.367 1.367 0 01-.536.06 13.35 13.35 0 01-5.641-1.912A12.464 12.464 0 012.012 6.76a11.961 11.961 0 01-2.007-5.4A1.191 1.191 0 01.068.85C.126.683.22.533.342.405c.122-.128.271-.23.437-.3C.945.036 1.125 0 1.306 0h1.961c.317-.003.625.104.865.301s.398.471.442.77c.083.599.236 1.186.458 1.751.088.223.107.465.055.698a1.23 1.23 0 01-.35.617l-.83.79a10.227 10.227 0 003.923 3.74l.83-.792a1.365 1.365 0 011.38-.28 8.735 8.735 0 001.836.436c.318.043.608.195.815.429.207.233.318.53.31.836z" fill="#ED7B33"/></svg>