<svg width="13" height="13" viewBox="0 0 13 13" fill="none" xmlns="http://www.w3.org/2000/svg">
<path d="M12.9996 9.29487V11.1638C13.0003 11.3373 12.963 11.509 12.8901 11.668C12.8172 11.827 12.7102 11.9697 12.5761 12.087C12.442 12.2043 12.2836 12.2936 12.1111 12.3491C11.9387 12.4047 11.756 12.4254 11.5747 12.4098C9.56332 12.2015 7.63128 11.5464 5.93379 10.4972C4.35449 9.54074 3.01552 8.26458 2.01197 6.75936C0.907309 5.13414 0.219857 3.28377 0.00530538 1.35815C-0.0110287 1.18588 0.0104527 1.01225 0.0683815 0.848321C0.12631 0.684393 0.219418 0.533758 0.341775 0.406005C0.464133 0.278253 0.61306 0.176182 0.779074 0.106292C0.945089 0.0364015 1.12455 0.000223295 1.30604 6.0399e-05H3.26695C3.58417 -0.00291522 3.89169 0.104146 4.13221 0.30129C4.37273 0.498433 4.52983 0.772207 4.57422 1.07158C4.65699 1.66968 4.81048 2.25693 5.03177 2.82214C5.11971 3.04512 5.13874 3.28746 5.08661 3.52043C5.03448 3.7534 4.91337 3.96724 4.73763 4.13663L3.90751 4.92781C4.838 6.48746 6.19292 7.77882 7.82933 8.66567L8.65945 7.87449C8.83717 7.70699 9.06154 7.59156 9.30598 7.54187C9.55041 7.49219 9.80467 7.51033 10.0386 7.59415C10.6316 7.80506 11.2478 7.95135 11.8753 8.03023C12.1929 8.07292 12.4828 8.22535 12.6901 8.45852C12.8974 8.6917 13.0076 8.98935 12.9996 9.29487Z" fill="#ED7B33"/>
</svg>
